<svg width="5296" height="3048" viewBox="0 0 5296 3048" fill="none" xmlns="http://www.w3.org/2000/svg">
<rect width="5296" height="3048" rx="218" fill="#090023"/>
<path d="M764.013 1838.02L566.773 1963.14C485.364 2014.78 379 1956.29 379 1859.88V1048C379 973.994 438.994 914 513 914H1603C1677.01 914 1737 973.994 1737 1048V1663.88C1737 1737.89 1677.01 1797.88 1603 1797.88H902.213C853.272 1797.88 805.34 1811.8 764.013 1838.02Z" stroke="url(#paint0_linear_3_2)" stroke-width="124"/>
<path d="M701.706 1260.19C724.838 1243.38 756.162 1243.38 779.294 1260.19L832.476 1298.82C855.609 1315.63 865.288 1345.42 856.452 1372.62L836.138 1435.13C827.303 1462.33 801.962 1480.74 773.369 1480.74H707.631C679.038 1480.74 653.697 1462.33 644.862 1435.13L624.548 1372.62C615.712 1345.42 625.391 1315.63 648.524 1298.82L701.706 1260.19Z" fill="#4000F9"/>
<ellipse cx="1058" cy="1369.5" rx="110" ry="109.5" fill="#4000F9"/>
<rect x="1276" y="1260" width="219" height="219" rx="64" fill="#4000F9"/>
<path d="M2404.61 1595V1175H2494.61V1595H2404.61ZM2140.01 1595V1175H2230.01V1595H2140.01ZM2176.01 1426.4L2176.61 1344.8H2450.81V1426.4H2176.01ZM2636.47 1733L2706.07 1569.8L2707.27 1619L2552.47 1277.6H2649.07L2726.47 1460.6C2729.67 1467.4 2732.67 1475.4 2735.47 1484.6C2738.67 1493.4 2741.27 1502 2743.27 1510.4L2728.87 1516.4C2731.27 1509.6 2734.07 1501.8 2737.27 1493C2740.47 1484.2 2743.67 1474.8 2746.87 1464.8L2813.47 1277.6H2910.67L2777.47 1595L2722.87 1733H2636.47ZM2956.53 1727V1277.6H3038.73L3041.13 1349L3025.53 1343.6C3028.33 1330.8 3035.13 1319 3045.93 1308.2C3057.13 1297.4 3070.93 1288.6 3087.33 1281.8C3103.73 1275 3120.93 1271.6 3138.93 1271.6C3166.53 1271.6 3190.93 1278.8 3212.13 1293.2C3233.73 1307.2 3250.73 1326.6 3263.13 1351.4C3275.93 1375.8 3282.33 1404 3282.33 1436C3282.33 1467.6 3276.13 1495.8 3263.73 1520.6C3251.33 1545.4 3234.33 1565 3212.73 1579.4C3191.13 1593.4 3166.53 1600.4 3138.93 1600.4C3120.53 1600.4 3102.93 1597 3086.13 1590.2C3069.73 1583 3055.73 1573.6 3044.13 1562C3032.53 1550.4 3025.33 1538 3022.53 1524.8L3042.33 1516.4V1727H2956.53ZM3119.73 1527.2C3135.33 1527.2 3149.13 1523.4 3161.13 1515.8C3173.13 1508.2 3182.53 1497.6 3189.33 1484C3196.13 1470 3199.53 1454 3199.53 1436C3199.53 1418 3196.13 1402.2 3189.33 1388.6C3182.53 1375 3173.13 1364.4 3161.13 1356.8C3149.53 1349.2 3135.73 1345.4 3119.73 1345.4C3103.73 1345.4 3089.73 1349.2 3077.73 1356.8C3065.73 1364 3056.33 1374.6 3049.53 1388.6C3042.73 1402.2 3039.33 1418 3039.33 1436C3039.33 1454 3042.73 1470 3049.53 1484C3056.33 1497.6 3065.73 1508.2 3077.73 1515.8C3089.73 1523.4 3103.73 1527.2 3119.73 1527.2ZM3497.36 1601C3462.96 1601 3432.96 1594 3407.36 1580C3381.76 1566 3361.76 1546.8 3347.36 1522.4C3332.96 1498 3325.76 1470 3325.76 1438.4C3325.76 1414 3329.76 1391.6 3337.76 1371.2C3345.76 1350.8 3356.96 1333.2 3371.36 1318.4C3385.76 1303.2 3402.76 1291.6 3422.36 1283.6C3442.36 1275.2 3463.96 1271 3487.16 1271C3508.76 1271 3528.76 1275 3547.16 1283C3565.56 1290.6 3581.36 1301.6 3594.56 1316C3608.16 1330 3618.56 1346.6 3625.76 1365.8C3632.96 1385 3636.16 1406 3635.36 1428.8L3634.76 1455.2H3379.76L3365.96 1403H3564.56L3554.96 1413.8V1400.6C3554.16 1389.8 3550.56 1380 3544.16 1371.2C3538.16 1362.4 3530.36 1355.6 3520.76 1350.8C3511.16 1346 3500.36 1343.6 3488.36 1343.6C3470.76 1343.6 3455.76 1347 3443.36 1353.8C3431.36 1360.6 3422.16 1370.6 3415.76 1383.8C3409.36 1397 3406.16 1413 3406.16 1431.8C3406.16 1451 3410.16 1467.6 3418.16 1481.6C3426.56 1495.6 3438.16 1506.6 3452.96 1514.6C3468.16 1522.2 3485.96 1526 3506.36 1526C3520.36 1526 3533.16 1523.8 3544.76 1519.4C3556.36 1515 3568.76 1507.4 3581.96 1496.6L3622.76 1553.6C3611.16 1564 3598.36 1572.8 3584.36 1580C3570.36 1586.8 3555.96 1592 3541.16 1595.6C3526.36 1599.2 3511.76 1601 3497.36 1601ZM3894.52 1601C3863.72 1601 3835.32 1595.8 3809.32 1585.4C3783.72 1574.6 3761.32 1559.6 3742.12 1540.4C3723.32 1520.8 3708.72 1497.8 3698.32 1471.4C3687.92 1444.6 3682.72 1415.4 3682.72 1383.8C3682.72 1353 3688.12 1324.6 3698.92 1298.6C3709.72 1272.2 3724.92 1249.4 3744.52 1230.2C3764.12 1210.6 3787.12 1195.4 3813.52 1184.6C3839.92 1173.8 3868.52 1168.4 3899.32 1168.4C3919.32 1168.4 3938.92 1171.2 3958.12 1176.8C3977.72 1182 3995.52 1189.8 4011.52 1200.2C4027.92 1210.6 4041.92 1223 4053.52 1237.4L3997.12 1299.8C3987.52 1290.2 3977.52 1282 3967.12 1275.2C3957.12 1268 3946.32 1262.6 3934.72 1259C3923.52 1255 3911.52 1253 3898.72 1253C3881.52 1253 3865.32 1256.2 3850.12 1262.6C3835.32 1269 3822.32 1278 3811.12 1289.6C3799.92 1300.8 3790.92 1314.6 3784.12 1331C3777.72 1347 3774.52 1364.8 3774.52 1384.4C3774.52 1404.4 3777.72 1422.6 3784.12 1439C3790.52 1455 3799.52 1468.8 3811.12 1480.4C3822.72 1491.6 3836.52 1500.4 3852.52 1506.8C3868.92 1512.8 3886.92 1515.8 3906.52 1515.8C3919.32 1515.8 3931.72 1514 3943.72 1510.4C3955.72 1506.8 3966.72 1501.8 3976.72 1495.4C3987.12 1489 3996.32 1481.6 4004.32 1473.2L4048.12 1543.4C4038.52 1554.2 4025.52 1564 4009.12 1572.8C3993.12 1581.6 3975.12 1588.6 3955.12 1593.8C3935.12 1598.6 3914.92 1601 3894.52 1601ZM4111.99 1595V1151H4195.99V1342.4L4179.19 1349.6C4183.59 1335.2 4191.39 1322.2 4202.59 1310.6C4214.19 1298.6 4227.99 1289 4243.99 1281.8C4259.99 1274.6 4276.79 1271 4294.39 1271C4318.39 1271 4338.39 1275.8 4354.39 1285.4C4370.79 1295 4382.99 1309.6 4390.99 1329.2C4399.39 1348.4 4403.59 1372.2 4403.59 1400.6V1595H4318.39V1407.2C4318.39 1392.8 4316.39 1380.8 4312.39 1371.2C4308.39 1361.6 4302.19 1354.6 4293.79 1350.2C4285.79 1345.4 4275.79 1343.4 4263.79 1344.2C4254.19 1344.2 4245.19 1345.8 4236.79 1349C4228.79 1351.8 4221.79 1356 4215.79 1361.6C4210.19 1367.2 4205.59 1373.6 4201.99 1380.8C4198.79 1388 4197.19 1395.8 4197.19 1404.2V1595H4155.19C4145.99 1595 4137.79 1595 4130.59 1595C4123.39 1595 4117.19 1595 4111.99 1595ZM4604.04 1601C4577.64 1601 4553.84 1593.8 4532.64 1579.4C4511.44 1565 4494.64 1545.4 4482.24 1520.6C4469.84 1495.8 4463.64 1467.4 4463.64 1435.4C4463.64 1403.4 4469.84 1375.2 4482.24 1350.8C4495.04 1326 4512.24 1306.6 4533.84 1292.6C4555.44 1278.2 4580.04 1271 4607.64 1271C4623.24 1271 4637.44 1273.4 4650.24 1278.2C4663.44 1282.6 4674.84 1288.8 4684.44 1296.8C4694.44 1304.8 4702.84 1314 4709.64 1324.4C4716.44 1334.8 4721.24 1346 4724.04 1358L4706.04 1355V1277.6H4790.64V1595H4704.84V1518.8L4724.04 1517C4720.84 1528.2 4715.64 1538.8 4708.44 1548.8C4701.24 1558.8 4692.24 1567.8 4681.44 1575.8C4671.04 1583.4 4659.24 1589.6 4646.04 1594.4C4632.84 1598.8 4618.84 1601 4604.04 1601ZM4627.44 1527.2C4643.44 1527.2 4657.44 1523.4 4669.44 1515.8C4681.44 1508.2 4690.64 1497.6 4697.04 1484C4703.84 1470 4707.24 1453.8 4707.24 1435.4C4707.24 1417.4 4703.84 1401.6 4697.04 1388C4690.64 1374.4 4681.44 1363.8 4669.44 1356.2C4657.44 1348.2 4643.44 1344.2 4627.44 1344.2C4611.84 1344.2 4598.04 1348.2 4586.04 1356.2C4574.44 1363.8 4565.24 1374.4 4558.44 1388C4551.64 1401.6 4548.24 1417.4 4548.24 1435.4C4548.24 1453.8 4551.64 1470 4558.44 1484C4565.24 1497.6 4574.44 1508.2 4586.04 1515.8C4598.04 1523.4 4611.84 1527.2 4627.44 1527.2ZM4906.66 1595V1197.2H4991.86V1595H4906.66ZM4847.26 1353.8V1277.6H5056.66V1353.8H4847.26Z" fill="white"/>
<defs>
<linearGradient id="paint0_linear_3_2" x1="317.317" y1="852" x2="1798.95" y2="2243.5" gradientUnits="userSpaceOnUse">
<stop stop-color="#4000F9"/>
<stop offset="1" stop-color="#7748FF"/>
</linearGradient>
</defs>
</svg>
